# xmcd CD database file
#
# Track frame offsets:
#	150
#	12146
#	26936
#	40943
#	56253
#	67998
#	81570
#	96427
#	110636
#	122345
#	137114
#	156457
#	166675
#	182994
#	197857
#
# Disc length: 2823 seconds
#
# Revision: 0
# Processed by: cddbd v1.4PL0 Copyright (c) Steve Scherf et al.
# Submitted via: CDex 1.50
#
DISCID=d00b050f
DTITLE=El Super Show de los Vaskez - La Banana
DYEAR=2003
DGENRE=Merengue
TTITLE0=La Banana
TTITLE1=Cumbia Soledeña
TTITLE2=Que rico Meneito
TTITLE3=Lloraba Lloraba
TTITLE4=La Banana Version Dance
TTITLE5=Pancha
TTITLE6=Besarte yo Quiero
TTITLE7=Que Vuelva
TTITLE8=La Banana Version cumbia
TTITLE9=Muchachita
TTITLE10=Al Besarte Concha
TTITLE11=Noches de Luna en Jalapa
TTITLE12=Que ganas con verme Llorar
TTITLE13=Tu eres la Cumbiambera
TTITLE14=La Tristeza de mi Cumbia
EXTD=YEAR: 2003
EXTT0=
EXTT1=
EXTT2=
EXTT3=
EXTT4=
EXTT5=
EXTT6=
EXTT7=
EXTT8=
EXTT9=
EXTT10=
EXTT11=
EXTT12=
EXTT13=
EXTT14=
PLAYORDER=
